<?xml version="1.0" encoding="utf-8"?>
<!-- Generator: Adobe Illustrator 16.0.0, SVG Export Plug-In . SVG Version: 6.00 Build 0)  -->
<!DOCTYPE svg PUBLIC "-//W3C//DTD SVG 1.1//EN" "http://www.w3.org/Graphics/SVG/1.1/DTD/svg11.dtd">
<svg version="1.1" id="Layer_1" xmlns="http://www.w3.org/2000/svg" xmlns:xlink="http://www.w3.org/1999/xlink" x="0px" y="0px"
	 width="310px" height="81.136px" viewBox="441.5 -87 310 81.136" enable-background="new 441.5 -87 310 81.136"
	 xml:space="preserve">
<g>
	<path d="M475.818-27.613c-14.182,0-24.545-10.091-24.545-25.091s10.363-25.091,24.545-25.091c14.183,0,24.546,10.091,24.546,25.091
		S490-27.613,475.818-27.613z M475.818-69.34c-9,0-14.454,6.545-14.454,16.636s5.728,16.636,14.454,16.636
		c8.728,0,14.455-6.545,14.455-16.636S484.818-69.34,475.818-69.34z"/>
	<path d="M527.909-53.25c-1.636-1.091-3.272-1.364-5.454-1.364c-4.637,0-7.909,3.273-7.909,9.545v16.637h-9.272V-62.25h9.272v6.273
		c1.363-3.818,4.637-7.364,9.546-7.364c2.182,0,3.817,0.545,4.636,1.364L527.909-53.25z"/>
	<path d="M530.636-76.977h9.546v9h-9.546V-76.977z M540.182-62.25v33.818h-9.273V-62.25H540.182z"/>
	<path d="M560.364-40.158c-2.728,0-5.182-0.273-7.363-1.363c-0.818,0.545-1.364,1.363-1.364,2.453c0,1.637,1.091,2.455,3.546,2.455
		h13.636c7.637,0,11.455,4.092,11.455,9.545c0,8.455-9.818,12-20.455,12c-9.272,0-17.454-2.453-17.454-8.727
		c0-3.545,2.728-6,6.818-6.545c-3-1.092-4.637-3.546-4.637-6.273c0-3,2.182-5.455,5.455-6.545c-3-1.91-4.637-4.91-4.637-8.728
		c0-7.091,6.272-11.728,15.272-11.728c4.091,0,7.909,1.091,10.637,3c1.909-2.727,5.182-4.909,9-4.909v7.364
		c-1.909,0-4.091,0.273-5.728,0.818c0.818,1.364,1.363,3.272,1.363,5.182C575.909-44.521,569.364-40.158,560.364-40.158z
		 M559.818-20.521c6.818,0,11.728-1.637,11.728-4.91c0-2.182-1.909-3-4.909-3h-11.182c-2.454,0-4.363,1.092-4.363,3.546
		C550.818-21.886,554.364-20.521,559.818-20.521z M560.636-57.613c-3.545,0-5.728,2.182-5.728,6c0,3.818,2.455,6,5.728,6
		c3.546,0,6-2.182,6-6C566.364-55.704,564.182-57.613,560.636-57.613z"/>
	<path d="M582.455-76.977H592v9h-9.546V-76.977z M591.727-62.25v33.818h-9.272V-62.25H591.727z"/>
	<path d="M606.728-28.432h-9.273V-62.25h9.273v5.455c1.637-3.818,6-6.545,11.182-6.545c9,0,12.273,6.272,12.273,13.636v21h-9.273
		v-19.091c0-5.182-2.182-8.182-6.545-8.182c-4.637,0-7.637,3.545-7.637,9.272V-28.432z"/>
	<path d="M665.091-36.613c0,1.637,0.818,2.728,2.455,2.728c0.818,0,1.908-0.272,2.727-0.818v4.909
		c-1.363,1.091-3.271,2.182-6.271,2.182c-3.818,0-6.273-2.182-7.092-6c-1.908,3.818-6.545,6-11.455,6
		c-7.09,0-11.453-3.545-11.453-9.272c0-6.546,5.182-9,12.816-10.636l9.273-1.909v-0.818c0-3.818-1.908-6-6-6
		c-3.818,0-6,2.182-6.545,5.728l-8.455-0.818c1.092-6.818,6.545-11.728,15.545-11.728c8.729,0,14.455,4.091,14.455,13.091V-36.613
		L665.091-36.613z M656.091-43.977l-6.273,1.363c-4.09,0.818-6.816,1.637-6.816,4.909c0,2.183,1.635,3.818,4.635,3.818
		c4.91,0,8.455-3.818,8.455-9V-43.977z"/>
	<path d="M673.272-55.977h-4.908v-5.455l2.182-0.273c3.271-0.545,4.09-2.182,4.908-5.455l1.092-4.636h5.727v9.273h9.273v6.545
		h-9.273v16.637c0,3,1.363,4.09,4.092,4.09c1.908,0,3.818-0.818,5.727-1.636v6c-2.455,1.909-5.182,3-9.273,3
		c-5.182,0-9.545-2.182-9.545-9.546V-55.977z"/>
	<path d="M727.817-39.613c-1.635,7.637-7.635,12-16.363,12c-10.363,0-18-6.545-18-17.455c0-10.636,7.637-18.272,17.729-18.272
		c11.182,0,16.635,7.636,16.635,16.909v3.273h-25.363c0.273,4.908,4.092,8.454,9.273,8.454c4.637,0,7.09-1.909,8.455-5.728
		L727.817-39.613z M718.817-48.886c-0.271-3.818-2.727-7.636-7.908-7.636s-7.637,3.545-8.455,7.636H718.817z"/>
	<path d="M731.364-38.795h10.363v10.363h-10.363V-38.795z"/>
</g>
</svg>
